<svg viewBox="0 0 399.28571 295.71429" xmlns="http://www.w3.org/2000/svg" xmlns:xlink="http://www.w3.org/1999/xlink"><defs><linearGradient id="e"><stop offset="0" stop-color="#f4f7f7" stop-opacity="0"/><stop offset="1" stop-color="#464e3b" stop-opacity=".558"/></linearGradient><linearGradient id="d"><stop offset="0" stop-color="#fcffff" stop-opacity="0"/><stop offset="1" stop-color="#ececec" stop-opacity=".996"/></linearGradient><linearGradient id="g"><stop offset="0" stop-color="#08100a"/><stop offset="1" stop-color="#595b5a"/></linearGradient><linearGradient id="b"><stop offset="0" stop-color="#e8ebeb"/><stop offset="1" stop-color="#5f6161" stop-opacity=".961"/></linearGradient><linearGradient id="a"><stop offset="0" stop-color="#fcffff"/><stop offset="1" stop-color="#656666" stop-opacity=".993"/></linearGradient><linearGradient id="f"><stop offset="0" stop-color="#cbcce4"/><stop offset="1" stop-color="#575f66"/></linearGradient><linearGradient id="c"><stop offset="0" stop-color="#a3aebc"/><stop offset="1" stop-color="#5a5f66"/></linearGradient><linearGradient gradientUnits="userSpaceOnUse" id="h" x1="465.714" x2="496.429" y1="238.38" y2="400.523"><stop offset="0" stop-color="#020d22"/><stop offset=".5" stop-color="#00366d"/><stop offset="1" stop-color="#1350bf"/></linearGradient><linearGradient gradientTransform="matrix(1 -.04393 0 1 0 32.416)" gradientUnits="userSpaceOnUse" id="m" x1="749.554" x2="724.554" y1="299.094" y2="299.809"><stop offset="0" stop-color="#cadaf3"/><stop offset="1" stop-color="#636b78"/></linearGradient><linearGradient gradientUnits="userSpaceOnUse" id="q" x1="685.714" x2="693.929" y1="261.225" y2="292.017"><stop offset="0" stop-color="#f6ffff" stop-opacity=".654"/><stop offset=".5" stop-color="#faffff" stop-opacity=".605"/><stop offset="1" stop-color="#a1a1a1" stop-opacity=".673"/></linearGradient><linearGradient gradientUnits="userSpaceOnUse" id="x" x1="593.036" x2="587.679" xlink:href="#a" y1="312.487" y2="314.541"/><linearGradient gradientUnits="userSpaceOnUse" id="v" x1="593.036" x2="589.643" xlink:href="#b" y1="311.862" y2="313.916"/><linearGradient gradientUnits="userSpaceOnUse" id="B" x1="565.179" x2="564.339" xlink:href="#c" y1="316.148" y2="313.685"/><linearGradient gradientTransform="matrix(.8736 0 0 .83816 49.322 51.072)" gradientUnits="userSpaceOnUse" id="C" x1="565.179" x2="564.339" xlink:href="#c" y1="316.148" y2="313.685"/><linearGradient gradientTransform="matrix(1.42132 .25418 0 1.13117 -188.574 -184.106)" gradientUnits="userSpaceOnUse" id="D" x1="565.267" x2="564.339" xlink:href="#c" y1="317.089" y2="313.685"/><linearGradient gradientUnits="userSpaceOnUse" id="E" x1="606.786" x2="595.485" xlink:href="#d" y1="279.487" y2="281.571"/><linearGradient gradientUnits="userSpaceOnUse" id="F" x1="603.692" x2="607.733" xlink:href="#d" y1="278.54" y2="271.596"/><linearGradient gradientUnits="userSpaceOnUse" id="i" x1="742.935" x2="729.856" xlink:href="#a" y1="299.567" y2="311.588"/><linearGradient gradientUnits="userSpaceOnUse" id="j" x1="731.35" x2="737.916" xlink:href="#b" y1="312.507" y2="303.258"/><linearGradient gradientUnits="userSpaceOnUse" id="k" x1="733.896" x2="731.217" xlink:href="#e" y1="314.235" y2="308.164"/><linearGradient gradientUnits="userSpaceOnUse" id="l" x1="722.857" x2="708.036" xlink:href="#a" y1="302.574" y2="315.88"/><linearGradient gradientTransform="matrix(1 0 0 -1 0 629.437)" gradientUnits="userSpaceOnUse" id="n" x1="714.821" x2="715.357" xlink:href="#e" y1="309.452" y2="319.094"/><linearGradient gradientUnits="userSpaceOnUse" id="o" x1="714.703" x2="712.025" xlink:href="#e" y1="318.023" y2="311.952"/><linearGradient gradientUnits="userSpaceOnUse" id="r" x1="705.213" x2="711.526" xlink:href="#e" y1="268.186" y2="257.762"/><linearGradient gradientTransform="matrix(1.04854 0 0 1.0546 -30.41 -17.24)" gradientUnits="userSpaceOnUse" id="s" x1="654.643" x2="656.071" xlink:href="#f" y1="305.166" y2="311.237"/><linearGradient gradientUnits="userSpaceOnUse" id="t" x1="610.179" x2="610.536" xlink:href="#f" y1="322.666" y2="310.255"/><radialGradient cx="598.05" cy="319.253" gradientTransform="matrix(.88368 .18076 -.47543 1.8046 219.92 -363.972)" gradientUnits="userSpaceOnUse" id="y" r="6.027" xlink:href="#g"/><radialGradient cx="585.385" cy="325.136" gradientTransform="matrix(1.291 -.05214 .02566 .63527 -179.425 146.46)" gradientUnits="userSpaceOnUse" id="w" r="10.44" xlink:href="#b"/><radialGradient cx="598.05" cy="319.253" gradientTransform="matrix(-2.39197 .34807 -.2117 -1.1295 2094.728 472.692)" gradientUnits="userSpaceOnUse" id="A" r="6.027" xlink:href="#g"/><radialGradient cx="595.848" cy="320.255" gradientTransform="matrix(-.035 -.97506 4.56552 -.156 -845.426 951.205)" gradientUnits="userSpaceOnUse" id="z" r="6.027" xlink:href="#a"/><radialGradient cx="534.464" cy="312.989" gradientTransform="matrix(-.69364 .1156 -.15014 -.90087 952.185 533.197)" gradientUnits="userSpaceOnUse" id="u" r="3.089" xlink:href="#a"/><radialGradient cx="721.678" cy="310.81" gradientTransform="matrix(-2.58042 .3837 -.16034 -.82555 2637.336 291.41)" gradientUnits="userSpaceOnUse" id="p" r="7.411" xlink:href="#d"/></defs><path d="M426.52 200.523h397.675a.805.457 0 0 1 .805.457v294.8a.805.457 0 0 1-.805.457H426.52a.805.457 0 0 1-.806-.456v-294.8a.805.457 0 0 1 .805-.457" fill="url(#h)" opacity=".976" transform="translate(-425.714 -200.523)"/><path d="M728.753 311.104c.158 3.55 5.673 5.002 8.194 5.163s5.988 0 7.72-.484 5.2-2.904 4.886-7.744-4.727-5.486-6.776-5.81-5.357.324-8.194 1.453-5.042 3.388-5.515 4.84-.315 2.743-.315 2.58z" fill="url(#i)" fill-rule="evenodd" transform="translate(-413.714 -146.124)"/><path d="M735.896 300.385l4.04 2.273s-4.545 1.01-6.06 3.03-11.112-3.535-11.112-3.535l5.303-1.263 7.83-.505z" fill="url(#j)" fill-rule="evenodd" transform="translate(-413.714 -146.124)"/><path d="M736.523 305.65c-4.83 0-9.643 2.373-9.643 5.28s3.92 5.282 8.75 5.282c1.99 0 3.81-.42 5.282-1.094-3.244-1.336-.29-.803-.29-3.91 0-.81-5.02-4.822-4.742-5.56h.643z" fill="url(#k)" opacity=".703" transform="translate(-413.714 -146.124)"/><path d="M706.786 315.344c.178 3.93 6.428 5.536 9.285 5.715s6.787 0 8.75-.537 5.894-3.214 5.537-8.57-5.357-6.073-7.678-6.43-6.073.357-9.287 1.607-5.714 3.75-6.25 5.357-.357 3.036-.357 2.857z" fill="url(#l)" fill-rule="evenodd" transform="translate(-413.714 -146.124)"/><path d="M721.607 302.755l32.054-3.462s.983-.132.09-.718-5.446-6.278-5.446-6.278l.714 5.95-26.697 1.352-.713 3.155z" fill="url(#m)" fill-rule="evenodd" transform="translate(-413.714 -146.124)"/><path d="M716.438 320c-4.83 0-8.75-2.374-8.75-5.282s3.92-5.28 8.75-5.28c1.99 0 3.81.418 5.28 1.093-3.243 1.337-5.468 4.018-5.468 7.126 0 .808.158 1.607.438 2.343h-.25z" fill="url(#n)" opacity=".703" transform="translate(-413.714 -146.124)"/><path d="M717.33 309.438c-4.83 0-9.643 2.373-9.643 5.28s3.92 5.282 8.75 5.282c1.99 0 3.81-.42 5.282-1.094-3.245-1.336-.29-.803-.29-3.91 0-.81-5.022-4.822-4.742-5.558h.642z" fill="url(#o)" opacity=".703" transform="translate(-413.714 -146.124)"/><path d="M732.68 312.577a7.41 7.41 0 1 1-14.823 0 7.41 7.41 0 1 1 14.822 0z" fill="url(#p)" transform="matrix(.90215 0 0 .96653 -344.01 -135.152)"/><path d="M316.285 166.898a4.91 5.714 0 1 1-9.82 0 4.91 5.714 0 1 1 9.82 0z"/><path d="M732.68 312.577a7.41 7.41 0 1 1-14.823 0 7.41 7.41 0 1 1 14.822 0z" fill="url(#p)" transform="matrix(.834 0 0 .83022 -274.88 -96.585)"/><path d="M335.53 162.868a4.54 4.908 0 1 1-9.078 0 4.54 4.908 0 1 1 9.08 0z"/><path d="M201.107 146.363l-1.607-1.07s-8.035-18.75-9.82-22.68-4.108-8.214-4.108-8.214l-4.107 2.856h.892l5.536 34.464s-1.607.536-2.32 2.143-.358 2.322-.358 2.322l.892 2.5s8.393 9.82 14.286 12.5 13.572 3.57 16.786 3.57 60-5.713 66.25-6.427 14.106-3.215 21.606-8.572 13.57-13.928 14.643-16.25 1.427-8.036-1.43-11.25-15.714-14.107-15.714-14.107l-3.036-2.858s-2.857-3.393-7.32-3.93-17.323 3.394-35 10.537-25.358 15.178-28.93 16.428-21.25 6.964-23.214 7.678-4.107.536-3.93.357z" fill="#fff5ff" fill-opacity=".974" fill-rule="evenodd"/><path d="M614.82 292.487l-1.606-1.07s-8.035-18.75-9.82-22.68-4.108-8.214-4.108-8.214l-4.107 2.857h.89l5.537 34.464s-1.607.536-2.32 2.143-.358 2.322-.358 2.322l.89 2.5s8.33 9.71 14.287 12.246c5.597 2.383 13.564 3.564 16.786 3.572 3.214.007 60-5.462 66.25-6.176s14.107-3.215 21.607-8.572 13.57-13.928 14.643-16.25 1.428-8.036-1.43-11.25-15.713-14.107-15.713-14.107l-3.036-2.857s-2.857-3.393-7.32-3.93-17.323 3.394-35 10.537-25.358 15.18-28.93 16.43-21.25 6.963-23.214 7.677-4.107.536-3.93.357z" fill="url(#q)" fill-rule="evenodd" transform="translate(-413.714 -146.124)"/><path d="M188.786 159.935l3.036.357s39.285-10.18 61.964-15 45.893-10 55.536-10.714 10.093-.588 10.093-.588c.575.19-2.877-4.626-4.736-5.662-1.473-.82-1.43-.893-1.43-.893s-19.107 2.143-39.464 6.428-78.393 22.143-81.07 22.68-6.43.713-6.43.713l-.893.357s.357.893 1.072 1.25 2.32 1.25 2.32 1.072z" fill="#1e426e" fill-rule="evenodd"/><path d="M726.93 273.868l-10.858-9.217s-5.81-6.44-9.723-6.69-7.324.398-14.017 2.923-24.622 8.44-28.537 10.84-4.924 3.408-4.924 3.408 28.79-10.48 35.608-11.237 7.07-1.594 11.112-.757c6.318 1.306 14.537 7.206 19.698 10.732h1.64z" fill="url(#r)" fill-rule="evenodd" transform="translate(-413.714 -146.124)"/><path d="M319.942 142.476c.43 0 .85-4.57.62-4.57 0 0-17.847.422-47.133 6.136S201.82 159.4 201.82 159.4l4.107.178 5.535-.358s46.25-8.392 59.107-10.714 30-5.357 38.035-5.714 11.692-.494 11.335-.316z" fill="#8a1511" fill-rule="evenodd"/><path d="M665 309.487s-1.685-2.448-5.992-4.708-7.302-3.39-11.796-2.638-12.545 3.013-12.545 3.013l-8.238 3.955s17.037 5.838 21.53 6.403 8.99-.188 12.36-1.318 4.68-3.39 4.68-3.39v-1.318z" fill="url(#s)" fill-rule="evenodd" transform="translate(-413.714 -146.124)"/><path d="M648.75 305.702l-24.643.357s-127.32 6.07-136.07 6.606c-5.82.356-9.845.098-11.292.243-.73.073-4.156-6.226-4.156-6.226.022.046 1.63 5.01 2.256 6.11.418.733.877 1.233 1.318 1.268.222.018 2.334-.325 2.586-.325l147.32.357s10.36 1.072 13.037 1.072 6.25-1.072 7.322-1.43 4.82-1.427 5.713-2.32 1.964-2.143-.18-3.75-3.034-2.143-3.213-1.964z" fill="url(#t)" fill-rule="evenodd" transform="translate(-413.714 -146.124)"/><path d="M239.857 163.685l-177.32 3.393 4.832-.673 57.28-3.272 84.493-3.555h26.25l3.393 1.785.714 2.143.357.18z" fill="#e8ebeb" fill-rule="evenodd"/><path d="M302.447 118.595l-13.393.358.714-3.483s4.822-.357 6.518-.357h2.41l3.75 3.482zM284.59 120.203l4.107-1.072.625-3.48-2.857.445-2.233 3.036.358 1.073z" fill="#28393f" fill-rule="evenodd"/><path d="M298.864 134.152l.01-.002a.823.448-13.4 0 1 .807.324v1.824a.823.448-13.4 0 1-.807.59h-.01a.823.448-13.4 0 1-.806-.322v-1.824a.823.448-13.4 0 1 .807-.59M296.37 134.563h.01a.823.448-13.4 0 1 .806.322v1.824a.823.448-13.4 0 1-.807.59h-.01a.823.448-13.4 0 1-.807-.323v-1.824a.823.448-13.4 0 1 .807-.59M293.876 134.975l.01-.002a.823.448-13.4 0 1 .806.324v1.824a.823.448-13.4 0 1-.807.59l-.01.002a.823.448-13.4 0 1-.807-.323v-1.825a.823.448-13.4 0 1 .808-.59M291.382 135.386h.01a.823.448-13.4 0 1 .806.322v1.824a.823.448-13.4 0 1-.807.59h-.008a.823.448-13.4 0 1-.808-.322v-1.824a.823.448-13.4 0 1 .808-.59M288.888 135.797h.01a.823.448-13.4 0 1 .806.322v1.823a.823.448-13.4 0 1-.807.59l-.01.002a.823.448-13.4 0 1-.807-.324v-1.823a.823.448-13.4 0 1 .808-.59M286.394 136.21l.008-.003a.823.448-13.4 0 1 .808.324v1.825a.823.448-13.4 0 1-.808.59h-.008a.823.448-13.4 0 1-.808-.322V136.8a.823.448-13.4 0 1 .808-.59M283.9 136.62h.008a.823.448-13.4 0 1 .808.322v1.824a.823.448-13.4 0 1-.808.59l-.008.002a.823.448-13.4 0 1-.808-.324v-1.824a.823.448-13.4 0 1 .808-.59M281.405 137.032l.01-.002a.823.448-13.4 0 1 .807.324v1.824a.823.448-13.4 0 1-.808.59h-.01a.823.448-13.4 0 1-.806-.322v-1.824a.823.448-13.4 0 1 .807-.59M278.91 137.443h.01a.823.448-13.4 0 1 .808.322v1.824a.823.448-13.4 0 1-.808.59h-.01a.823.448-13.4 0 1-.806-.323v-1.824a.823.448-13.4 0 1 .807-.59M276.417 137.854h.01a.823.448-13.4 0 1 .806.322V140a.823.448-13.4 0 1-.807.59l-.01.002a.823.448-13.4 0 1-.806-.324v-1.824a.823.448-13.4 0 1 .807-.59M273.923 138.266l.01-.002a.823.448-13.4 0 1 .806.324v1.824a.823.448-13.4 0 1-.808.59h-.01a.823.448-13.4 0 1-.806-.322v-1.824a.823.448-13.4 0 1 .807-.59M271.43 138.677h.008a.823.448-13.4 0 1 .807.322v1.823a.823.448-13.4 0 1-.807.59l-.01.002a.823.448-13.4 0 1-.807-.324v-1.823a.823.448-13.4 0 1 .81-.59M268.935 139.09l.01-.003a.823.448-13.4 0 1 .806.324v1.825a.823.448-13.4 0 1-.806.59h-.01a.823.448-13.4 0 1-.807-.322v-1.824a.823.448-13.4 0 1 .808-.59M266.44 139.5h.01a.823.448-13.4 0 1 .807.322v1.824a.823.448-13.4 0 1-.808.59h-.01a.823.448-13.4 0 1-.807-.322v-1.824a.823.448-13.4 0 1 .808-.59M263.947 139.91h.008a.823.448-13.4 0 1 .808.323v1.824a.823.448-13.4 0 1-.808.59l-.008.002a.823.448-13.4 0 1-.808-.325V140.5a.823.448-13.4 0 1 .807-.59M261.452 140.323l.01-.002a.823.448-13.4 0 1 .807.325v1.824a.823.448-13.4 0 1-.81.59h-.008a.823.448-13.4 0 1-.807-.323v-1.824a.823.448-13.4 0 1 .807-.59M258.958 140.734h.01a.823.448-13.4 0 1 .807.322v1.824a.823.448-13.4 0 1-.808.59l-.01.002a.823.448-13.4 0 1-.806-.324v-1.824a.823.448-13.4 0 1 .808-.59M256.464 141.146l.01-.002a.823.448-13.4 0 1 .807.324v1.824a.823.448-13.4 0 1-.807.59h-.01a.823.448-13.4 0 1-.806-.322v-1.824a.823.448-13.4 0 1 .807-.59M253.97 141.557h.01a.823.448-13.4 0 1 .806.322v1.823a.823.448-13.4 0 1-.807.59h-.01a.823.448-13.4 0 1-.807-.322v-1.823a.823.448-13.4 0 1 .807-.59" fill="#10181a" opacity=".976"/><path d="M536.25 315.344l-2.68-4.285-2.5.177 3.75 4.465 1.43-.358z" fill="url(#u)" fill-rule="evenodd" transform="translate(-413.714 -146.124)"/><path d="M597.41 314.63l-7.5-5.536s-4.106 1.43-4.82 2.143 4.91 3.93 4.91 3.93l7.41-.537z" fill="url(#v)" fill-rule="evenodd" transform="translate(-413.714 -146.124)"/><path d="M602.768 322.22s.316 3.81-4.375 6.696c-5.03 3.094-14.948-1.166-15.268-5-.137-1.644-.3-2.167.714-4.018.69-1.262 3.306-3.624 5.178-4.554 1.964-.975 5.446-1.553 7.857-.982 2.37.562 4.545 2.244 5.446 4.286.797 1.802.59 3.64.448 3.57z" fill="url(#w)" fill-rule="evenodd" transform="translate(-413.714 -146.124)"/><path d="M588.75 315.88l-2.143 1.072-5.714-3.75 3.214-1.072 4.643 3.75z" fill="url(#x)" fill-rule="evenodd" transform="translate(-413.714 -146.124)"/><path d="M601.875 320.255a6.027 5.804 0 1 1-12.054 0 6.027 5.804 0 1 1 12.055 0z" fill="url(#y)" transform="matrix(1.03704 0 0 1.17692 -435.56 -201.31)"/><path d="M188.342 175.694a5.402 5.402 0 1 1-10.804 0 5.402 5.402 0 1 1 10.804 0z"/><path d="M116.465 171.542l3.035-1.786-1.428-3.57-2.322 1.606.715 3.75z" fill="#b0b3b3" fill-rule="evenodd"/><path d="M601.875 320.255a6.027 5.804 0 1 1-12.054 0 6.027 5.804 0 1 1 12.055 0z" fill="url(#z)" transform="matrix(1.3434 0 0 1.37692 -679.715 -264.56)"/><path d="M601.875 320.255a6.027 5.804 0 1 1-12.054 0 6.027 5.804 0 1 1 12.055 0z" fill="url(#A)" transform="matrix(1.0323 0 0 1.08462 -493.536 -171.213)"/><path d="M126.508 176.142a4.955 4.955 0 1 1-9.91 0 4.955 4.955 0 1 1 9.91 0z"/><path d="M561.16 314.273s.18 1.786 1.786 2.143 2.233.357 3.304-.18 1.16-2.677 1.25-3.213-.18-1.875-.18-1.875l-2.41.09-3.75 3.035z" fill="url(#B)" fill-rule="evenodd" transform="translate(-413.714 -146.124)"/><path d="M539.554 314.482s.156 1.496 1.56 1.796 1.95.3 2.886-.15 1.014-2.245 1.092-2.694-.156-1.572-.156-1.572l-2.106.075-3.276 2.545z" fill="url(#C)" fill-rule="evenodd" transform="translate(-413.714 -146.124)"/><path d="M609.018 314.025s0 3.075 2.285 3.888 2.92.214 4.443-.12 2.155-2.987 2.282-3.57-.254-2.167-.254-2.167l-3.426-.512-5.33 2.48z" fill="url(#D)" fill-rule="evenodd" transform="translate(-413.714 -146.124)"/><path d="M186.018 139.756l8.125-4.018-2.143-4.91-6.696 4.285.714 4.643z" fill="#214079" fill-rule="evenodd"/><path d="M186.152 141.05l8.348-4.106.893 1.875-8.84 4.374-.4-2.143zM186.732 144.22l9.397-4.187 1.004 1.866-9.95 4.46-.452-2.14z" fill="#801d22" fill-rule="evenodd"/><path d="M187.074 159.312l-44.7-3.03s-1.262-.506-.252-.758 47.73.505 47.73.505h4.293l-7.07 3.282z" fill="#bac3c4" fill-rule="evenodd"/><path d="M269.824 122.696a.69.424-27.944 0 1 .64.266v1.182a.69.424-27.944 0 1-.64.647.69.424-27.944 0 1-.64-.266v-1.182a.69.424-27.944 0 1 .64-.646M267.858 123.28a.69.424-27.944 0 1 .64.266v1.182a.69.424-27.944 0 1-.64.647.69.424-27.944 0 1-.64-.267v-1.18a.69.424-27.944 0 1 .64-.648M265.892 123.864a.69.424-27.944 0 1 .64.267v1.182a.69.424-27.944 0 1-.64.647.69.424-27.944 0 1-.64-.267v-1.182a.69.424-27.944 0 1 .64-.646M263.926 124.448a.69.424-27.944 0 1 .64.267v1.182a.69.424-27.944 0 1-.64.646.69.424-27.944 0 1-.64-.266v-1.182a.69.424-27.944 0 1 .64-.647M261.96 125.033a.69.424-27.944 0 1 .64.266v1.18a.69.424-27.944 0 1-.64.648.69.424-27.944 0 1-.64-.267v-1.18a.69.424-27.944 0 1 .64-.647M259.994 125.617a.69.424-27.944 0 1 .64.266v1.182a.69.424-27.944 0 1-.64.647.69.424-27.944 0 1-.64-.266v-1.182a.69.424-27.944 0 1 .64-.647M258.028 126.2a.69.424-27.944 0 1 .64.268v1.18a.69.424-27.944 0 1-.64.648.69.424-27.944 0 1-.64-.266v-1.182a.69.424-27.944 0 1 .64-.647M256.062 126.786a.69.424-27.944 0 1 .64.266v1.182a.69.424-27.944 0 1-.64.647.69.424-27.944 0 1-.64-.266v-1.182a.69.424-27.944 0 1 .64-.646M251.326 128.576a.7.41-33.22 0 1 .626.22v1.164a.7.41-33.22 0 1-.626.692.7.41-33.22 0 1-.627-.22v-1.164a.7.41-33.22 0 1 .626-.692M249.4 129.3a.7.41-33.22 0 1 .627.22v1.164a.7.41-33.22 0 1-.627.692.7.41-33.22 0 1-.626-.22v-1.164a.7.41-33.22 0 1 .626-.692M247.475 130.024a.7.41-33.22 0 1 .627.22v1.163a.7.41-33.22 0 1-.627.693.7.41-33.22 0 1-.627-.22v-1.164a.7.41-33.22 0 1 .627-.692M245.55 130.747a.7.41-33.22 0 1 .626.22v1.164a.7.41-33.22 0 1-.626.693.7.41-33.22 0 1-.627-.22v-1.163a.7.41-33.22 0 1 .627-.693M243.624 131.47a.7.41-33.22 0 1 .627.222v1.163a.7.41-33.22 0 1-.626.692.7.41-33.22 0 1-.626-.22v-1.164a.7.41-33.22 0 1 .626-.692" fill="#10181a" opacity=".976"/><path d="M612.72 292.493c0-.505-7.07-15.657-7.07-15.657l-6.63-15.09-2.462 2.4 5.114 31.188 11.05-2.84z" fill="url(#E)" fill-rule="evenodd" transform="translate(-413.714 -146.124)"/><path d="M612.72 292.493c0-.505-7.07-15.657-7.07-15.657l-6.566-15.468-2.968 1.894 5.556 32.072 11.05-2.84z" fill="url(#F)" fill-rule="evenodd" transform="translate(-413.714 -146.124)"/><path d="M9.84 57.834c-1.166.014-2.28.29-4.125.75-1.28.32-3.12.806-5 1.438v99.562c1.028.026 2.324.015 4.28.406 2.61.522 7.306 2.786 10 1.438 2.865-1.432 3.548-3.238 7.876-2.156 3.545.886 16.924 3.077 20 0 1.157-1.157 5.055-12.844 5.688-12.844.555 0 17.598 2.047 18.594.72 3.075-4.102 2.827-1.622 7.844-2.876 3.7-.926 6.542-2.262 9.28-5 1.287-1.286 2.55-5.426 5-6.407 10.774-4.31 7.56-2.386 9.282-9.28 1.95-7.795 15.392-4.313 22.875-4.313 3.335 0 20.58 2.627 17.125-4.282-3.493-6.987-8.727-.164-13.562-5-5.936-5.936 16.216-2.843 20.72-2.843 10.03 0 21.382 1.792 29.28-2.157 4.608-2.304 12.212-2.767 19.28-2.125 6.258.57 9.107 1.55 14.282 2.844 2.992.747 19.956 1.807 24.313.718 3.083-.77 14.703-1.704 10.688-5.72-2.246-2.245-8.51.958-9.28-2.124-.725-2.896-10.895-3.604-11.407-7.156-.718-4.984-16.258-2.032-2.874-8.563.428-.208-3.447-.975-3.563-1.437-1.626-6.505-22.726-1.438-30.718-1.438h-6.438c-10.757 0-25.84 4.44-37.844 1.438-4.125-1.032-5.508-3.563-9.28-3.563-4.598 0-6.332 4.282-9.282 4.282-3.9 0-29.05 2.357-30-1.438-.443-1.777-2.458-7.845-5-7.845-6.55 0-10.212 1.225-14.312-2.875-1.106-1.106-5.298-6.175-7.125-5.718-3.97.993-12.46 3.655-15.718-.688-3.286-4.38-20.31 3.872-16.438 0-4.026-.805-6.97-4.312-10-4.312-3.755 0-7.102.037-10-.688-2.062-.515-3.27-.763-4.437-.75zM381.288 188.566c-1.25-.022-2.41.033-3.392.282-4.166 1.058-5.14 2.393-11.435 1.593-5.153-.653-24.644-2.273-29.12 0-1.56.793-8.07 4.424-8.334 5.095-.847-.555-6.365-2.784-20.108-3.25-7.33-.248-10.97 1.198-18.268 2.125-5.384.684-9.535 1.664-13.518 3.688-1.87.95-3.705 3.994-7.27 4.718-15.668 3.185-10.962 1.78-13.47 6.875-2.833 5.762-18.283-1.53-29.168-1.53-4.85 0-14.812-1.95-9.788 3.156 1.588 1.614 1.93 2.243 1.89 2.438.432.154 1.175.468 2.713 1.25 8.633 4.387-23.59 2.125-30.14 2.125-14.59 0-14.63-.607-26.116 2.31-6.703 1.704-17.773 2.04-28.055 1.564-9.102-.42-17.33 3.55-24.858 2.594-4.35-.553-29.034-1.337-35.372-.532-4.483.57-21.393 1.283-15.554 4.25 3.267 1.66 12.398-.715 13.52 1.563 1.052 2.14 15.825 2.655 16.57 5.28 1.046 3.683 23.635 1.518 4.168 6.344-.623.154 5.016.72 5.184 1.062 2.365 4.807 33.05 1.063 44.675 1.063h9.4c12.583 0 13.38 1.13 22.24 2.718-3.342.825-6.557 1.603-9.593 1.125-3.51-.553-23.38-1.337-28.49-.532-3.618.57-17.262 1.253-12.55 4.22 2.634 1.66 9.997-.715 10.9 1.563.85 2.14 12.773 2.687 13.374 5.312.844 3.683 19.048 1.486 3.344 6.313-.502.154 4.08.72 4.215 1.062 1.908 4.807 26.624 1.063 36.002 1.063h7.56c12.62 0 10.386 1.72 24.468 3.937 4.84.762 13.113-3.094 17.54-3.094 5.394 0 11.85 2.563 15.312 2.563 4.576 0 20.788 6.132 21.9 8.936.522 1.313 10.684-3.5 13.665-3.5 7.685 0 11.955-.905 16.766 2.125 1.298.82 6.24 4.558 8.382 4.22 4.66-.734 15.706-6.99 19.527-3.78 3.855 3.237 23.828-2.863 19.285 0 4.724.594 8.173 3.186 11.726 3.186 4.406 0 8.326-.035 11.726.5 2.42.38 3.865.573 5.233.563s2.68-.223 4.845-.564c1.503-.236 3.66-.595 5.863-1.062v-89.281c-1.495-.02-3.403-.024-6.25-.313s-7.392-1.275-11.145-1.344zm-161.982 25.188c-.926-.33-.06.292 0 0zm109.7-18.188c.132.09.214.118.097.094-.053-.01-.105-.053-.097-.094zM391.773 69.61c.882-.09 1.726-.368 3.122-.834.97-.323 2.36-.806 3.783-1.4V.936c-.778.05-1.76.147-3.24-.01-1.974-.21-5.527-1.564-7.567-.386-2.166 1.252-2.683 2.633-5.958 2.126-2.68-.415-12.805-1.13-15.134 1.353-.875.932-4.75 5.453-4.304 5.59.424.13-2.1-2.653-10.498-2.45-3.813.092-5.71 1.708-9.507 2.974-2.802.935-4.952 2.114-7.024 4.323-.973 1.038-1.93 4.183-3.784 5.073-8.152 3.914-5.718 2.275-7.023 7.487-1.475 5.893-9.505-.677-15.168-.17-2.523.224-7.715-1.253-5.1 3.62 2.643 4.926-1.254.232 2.405 3.48 4.49 3.984-12.27 3.197-15.678 3.502-7.592.677-7.61.068-13.587 3.52-3.487 2.016-9.24 2.872-14.59 2.875-4.735.003-9.034 4.377-12.95 3.77-2.263-.35-15.1.014-18.397 1.114-2.332.777-11.126 2.252-8.087 4.948 1.698 1.508 6.44-1.283 7.022.943.548 2.092 8.243 1.927 8.63 4.518.545 3.634 12.304.402 2.176 6.134-.323.183 2.61.488 2.696.82 1.23 4.698 17.197-.473 23.245-1.014l4.87-.435c8.14-.728 6.698 1.12 15.78 2.527 3.122.483 8.453-3.837 11.31-4.092 3.477-.31 7.647 1.866 9.88 1.667 2.95-.264 13.41 4.916 14.13 7.657.335 1.282 6.86-4.102 8.782-4.274 4.957-.443 7.728-1.596 10.83 1.157.838.743 4.01 4.205 5.392 3.744 3.005-1.003 10.144-7.895 12.61-4.905 2.485 3.015 15.367-4.236 12.437-1.112 3.048.323 5.277 2.716 7.568 2.51 2.842-.253 5.374-.507 7.567-.167 1.56.24 2.476.343 3.358.254z" fill="#f5fffa" fill-rule="evenodd"/></svg>