<svg xmlns="http://www.w3.org/2000/svg" width="134.981" height="135.016" viewBox="0 0 134.981 135.016"><path d="M39.213 128.286l28.277-28.284 28.277 28.284c8.97 8.973 23.516 8.973 32.486 0 8.97-8.974 8.97-23.52 0-32.494L99.977 67.508l28.277-28.284c8.97-8.974 8.97-23.52 0-32.494-8.97-8.973-23.516-8.973-32.486 0L67.49 35.014 39.214 6.73c-8.97-8.974-23.515-8.974-32.485 0-8.97 8.972-8.97 23.52 0 32.493l28.276 28.284L6.728 95.792c-8.97 8.974-8.97 23.52 0 32.494 8.97 8.973 23.515 8.973 32.485 0z"/></svg>