<svg xmlns="http://www.w3.org/2000/svg" width="138.978" height="135.015" viewBox="0 0 138.978 135.015"><path d="M18.576 36.788h101.826c10.26 0 18.575-8.235 18.575-18.395C138.977 8.235 130.66 0 120.402 0H18.576C8.316 0 0 8.235 0 18.393c0 10.16 8.316 18.395 18.576 18.395zm101.826 12.326H18.576C8.316 49.114 0 57.35 0 67.507s8.316 18.395 18.576 18.395h101.826c10.26 0 18.575-8.236 18.575-18.395s-8.316-18.393-18.575-18.393zm0 49.113H18.576C8.316 98.227 0 106.462 0 116.622s8.316 18.394 18.576 18.394h101.826c10.26 0 18.575-8.234 18.575-18.394s-8.316-18.395-18.575-18.395z"/></svg>