<svg xmlns="http://www.w3.org/2000/svg" width="171.885" height="171.885" viewBox="0 0 171.885 171.885"><path d="M22.97 108.924l39.996-.005-.005 39.993c0 12.688 10.284 22.973 22.973 22.97 12.688 0 22.975-10.287 22.977-22.976l.004-39.995 39.995-.005c12.686-.002 22.973-10.288 22.975-22.977.002-12.687-10.283-22.97-22.97-22.97l-39.996.006.004-39.995C108.924 10.286 98.64 0 85.954 0 73.265 0 62.98 10.29 62.976 22.977l-.005 39.995-39.995.005C10.287 62.98.002 73.267 0 85.954c-.002 12.688 10.282 22.972 22.97 22.97z"/></svg>