<svg version="1" xmlns="http://www.w3.org/2000/svg" xmlns:xlink="http://www.w3.org/1999/xlink" width="302.334" height="310" viewBox="0 0 302.334 310"><defs><path id="a" d="M-152-242h612v792h-612z"/></defs><clipPath id="b"><use xlink:href="#a" overflow="visible"/></clipPath><path clip-path="url(#b)" fill="#1496D6" d="M283.677 216.265c-1.487 2.994-3.093 5.682-4.466 7.684-2.484 3.6-5.066 6.257-8.58 9.784-30.306 30.44-99.68 63.77-200.584 21.578-23.904-9.988-39.555-26.707-46.202-38.87-2.08-4.3-3.955-8.705-5.61-13.24 1.61 3.224 3.428 6.278 5.484 9.206 33.907 48.463 111.785 45.485 127.028 43.78 102.39-11.498 134.034-48.357 143.43-69.748-2.417 10.418-5.96 20.395-10.498 29.823m9.302-94.473c0 7.237-8.896 51.613-96.44 59.67-12.414 1.142-154.12 2.758-180.972-54.42-.405-.87-.767-1.777-.992-2.707-.3-1.236-.42-2.147-.454-3.143-.023-.79.016-1.495.092-2.162.126-1.236.717-4.08 1.132-5.652 1.556-5.293 3.395-10.46 5.515-15.483-.22 1.697-.29 3.592-.24 5.93.074 3.17.738 6.655 1.95 10.045 11.457 32.138 82.203 60.092 167.957 36.382 36.374-10.05 90.718-29.338 90.718-58.875 0-.995.28-2.852-1.01-6.552 4.687 8.566 8.53 17.654 11.425 27.16 1.32 4.623 1.32 6.8 1.32 9.806m-66.485-92.31c-.053-.03-.126-.06-.184-.1 5.536 3.315 9.22 5.866 9.22 10.054 0 14.682-35.44 28.133-81.714 29.33C107.55 69.974 69.2 58.448 68.166 43.8c-.332-4.76 3.504-8.53 10.09-12.707 21.967-13.546 47.812-21.375 75.457-21.375 26.535 0 51.408 7.21 72.783 19.762"/><path clip-path="url(#b)" fill="#1496D6" d="M58.57 45.665c-7.712 8.977-7.697 17.01-7.697 18.2 0 13.316 19.17 34.63 74.694 34.63 32.915 0 59.49-6.456 79.552-13.203 32.155-10.826 48.062-24.04 47.505-33.887-.05-.87-.198-1.83-.588-2.853 5.97 5.58 11.473 11.658 16.438 18.176-.016-.016-.03-.027-.046-.042 2.603 3.604 4.847 8.188 4.8 12.524-.152 14.48-14.003 36.736-76.974 41.992-31.195 2.612-71.505-2.96-86.723-4.92-44.932-5.797-77.737-23.44-77.737-37.053 0-1.047.72-3.44 2.613-6.19 6.863-10.123 15-19.314 24.16-27.376M9.716 146.792c2.856 22.203 22.878 46.618 57.174 57.552 41.788 13.313 67.446 13.74 128.22.05 92.996-20.98 100.55-61.603 101.157-72.063 1.06 7.034 1.617 14.234 1.617 21.553 0 2.373-.065 4.732-.18 7.09-.152 2.383-.705 6.7-1.083 8.633-.3 1.438-.556 2.48-.97 3.566-7.735 20.39-36.5 59.573-124.296 62.746-28.183 1.02-77.794-8.813-109.04-21.727-23.896-9.877-47.372-28.56-51.926-46.957-.225-.88-.4-2.54-.503-3.59-.22-3.22-.34-6.486-.34-9.76 0-2.377.055-4.737.173-7.09m143.994 151.263c-36.474 0-69.824-13.618-95.242-36.04 30.406 20.835 69.79 23.61 89.13 23.61 64.186 0 100.858-23.986 119.795-43.178-26.413 33.817-67.553 55.608-113.683 55.608"/></svg>