<svg version="1" xmlns="http://www.w3.org/2000/svg" xmlns:xlink="http://www.w3.org/1999/xlink" width="271.76" height="244.441" viewBox="0 0 271.76 244.441"><defs><path id="a" d="M0 0h271.76v244.44H0z"/></defs><clipPath id="b"><use xlink:href="#a" overflow="visible"/></clipPath><path clip-path="url(#b)" fill="#1496D6" d="M164.15 31.182h-19.804V11.376C144.346 5.093 139.253 0 132.97 0s-11.376 5.094-11.376 11.377v19.805h-19.806c-6.283 0-11.376 5.093-11.376 11.376 0 6.284 5.093 11.377 11.376 11.377h19.806V73.74c0 6.283 5.093 11.377 11.376 11.377s11.377-5.094 11.377-11.377V53.935h19.805c6.283 0 11.376-5.093 11.376-11.376v-.003c0-6.284-5.093-11.376-11.377-11.376m96.234.002H240.58V11.376C240.58 5.093 235.483 0 229.2 0s-11.376 5.094-11.376 11.377v19.805H198.02c-6.283 0-11.376 5.093-11.376 11.376 0 6.284 5.093 11.377 11.376 11.377h19.807V73.74c0 6.283 5.093 11.377 11.376 11.377 6.282 0 11.377-5.094 11.377-11.377V53.935h19.805c6.283 0 11.376-5.093 11.376-11.376v-.003c0-6.284-5.092-11.376-11.375-11.376m-156.87 92.096h60.903c6.136 0 11.11-4.974 11.11-11.11 0-6.136-4.975-11.11-11.11-11.11h-60.904c-6.136 0-11.11 4.974-11.11 11.11 0 6.136 4.974 11.11 11.11 11.11m60.904 7.444h-60.904c-6.136 0-11.11 4.975-11.11 11.11 0 6.137 4.974 11.11 11.11 11.11h60.904c6.136 0 11.11-4.974 11.11-11.11 0-6.135-4.974-11.11-11.11-11.11m0 29.667h-60.904c-6.136 0-11.11 4.974-11.11 11.11 0 6.136 4.974 11.11 11.11 11.11h60.904c6.136 0 11.11-4.975 11.11-11.11 0-6.136-4.974-11.11-11.11-11.11m-152.103-60.02c-5.85 0-10.594 4.742-10.594 10.593v61.053c0 5.85 4.745 10.594 10.596 10.594s10.594-4.743 10.594-10.594V110.96c0-5.85-4.744-10.594-10.595-10.594m68.822 33.06l-30.555-29.833c-7.134-6.965-19.134-1.91-19.134 8.06v59.667c0 9.97 12 15.026 19.134 8.06l30.555-29.833c4.527-4.42 4.527-11.7 0-16.12m2.28-66.534L52.628 8.31C48.29.057 36.474.057 32.135 8.31L1.344 66.894c-4.05 7.71 1.54 16.963 10.25 16.963H73.17c8.71 0 14.3-9.254 10.248-16.963m104.747 50.436l30.79 58.58c4.338 8.256 16.156 8.256 20.495 0l30.79-58.58c4.05-7.71-1.54-16.964-10.25-16.964h-61.577c-8.71 0-14.3 9.254-10.248 16.963"/><path clip-path="url(#b)" fill="#FFF" d="M7.624 239.902H24.07v3.954H6.187c-2.022 0-2.876-.674-2.876-2.516v-1.123c0-5.978 4.63-8.628 8.988-10.785 3.82-1.888 7.235-3.325 7.235-6.47 0-3.013-2.202-4.81-5.93-4.81-4.27 0-6.293 2.606-7.102 5.572 0 .135-3.054.18-3.054-2.247 0-3.01 3.595-7.28 10.47-7.28 6.336 0 10.156 3.28 10.156 8.673 0 5.214-4.133 7.28-8.537 9.303-4.314 1.932-7.774 3.73-7.91 7.73m73.878-9.078v-2.966c0-8.405 4.628-13.66 12.088-13.66 7.55 0 12.135 5.21 12.135 13.613v2.92c0 8.404-4.63 13.707-12.133 13.707-7.55 0-12.087-5.212-12.087-13.615m19.592.134v-3.237c0-6.11-2.786-9.706-7.504-9.706s-7.414 3.505-7.414 9.617v3.28c0 6.11 2.74 9.615 7.414 9.615 4.81 0 7.505-3.46 7.505-9.57m67.988-9.84c-.765.763-1.843 1.213-3.012 1.213-2.11 0-3.595-1.26-3.595-3.1 0-1.53 1.17-2.384 1.305-2.293.675.63 1.484 1.033 2.652 1.033 1.932 0 3.415-1.482 3.64-3.415h1.573c1.348 0 2.02.72 2.02 2.11v27.19h-4.583v-22.74zm69.385 6.694v.9c1.887-1.753 4.898-3.192 8.268-3.192 5.935 0 9.844 3.326 9.844 8.763v.226c0 5.754-4.493 9.933-10.784 9.933-7.73 0-11.91-5.438-11.91-13.48v-2.967c0-8.583 4.72-13.795 12.223-13.795 6.112 0 9.258 2.876 9.258 5.168 0 1.753-2.245 2.382-2.336 2.247-1.348-2.066-3.414-3.595-6.694-3.595-5.036-.002-7.867 3.458-7.867 9.794m.045 4.494c.27 5.303 2.74 8.448 7.1 8.448 3.82 0 6.516-2.383 6.516-5.888v-.268c0-3.595-2.29-5.617-6.38-5.617-2.787 0-5.53 1.437-7.236 3.325"/></svg>