<?xml version="1.0" encoding="UTF-8" standalone="no"?>
<svg viewBox="0 0 399.28571 295.71429" xmlns="http://www.w3.org/2000/svg" xmlns:xlink="http://www.w3.org/1999/xlink">
<defs>
<linearGradient id="linearGradient3376">
<stop offset="0" stop-color="#f4f7f7" stop-opacity="0"/>
<stop offset="1" stop-color="#464e3b" stop-opacity=".55782"/>
</linearGradient>
<linearGradient id="linearGradient3259">
<stop offset="0" stop-color="#fcffff" stop-opacity="0"/>
<stop offset="1" stop-color="#ececec" stop-opacity=".99608"/>
</linearGradient>
<linearGradient id="linearGradient3421">
<stop offset="0" stop-color="#08100a"/>
<stop offset="1" stop-color="#595b5a"/>
</linearGradient>
<linearGradient id="linearGradient3407">
<stop offset="0" stop-color="#e8ebeb"/>
<stop offset="1" stop-color="#5f6161" stop-opacity=".96078"/>
</linearGradient>
<linearGradient id="linearGradient3399">
<stop offset="0" stop-color="#fcffff"/>
<stop offset="1" stop-color="#656666" stop-opacity=".9932"/>
</linearGradient>
<linearGradient id="linearGradient3276">
<stop offset="0" stop-color="#cbcce4"/>
<stop offset="1" stop-color="#575f66"/>
</linearGradient>
<linearGradient id="linearGradient3260">
<stop offset="0" stop-color="#a3aebc"/>
<stop offset="1" stop-color="#5a5f66"/>
</linearGradient>
<linearGradient gradientUnits="userSpaceOnUse" id="linearGradient3392" x1="465.71429" x2="496.42858" y1="238.3802" y2="400.52305">
<stop offset="0" stop-color="#020d22"/>
<stop offset=".5" stop-color="#00366d"/>
<stop offset="1" stop-color="#1350bf"/>
</linearGradient>
<linearGradient gradientTransform="matrix(1,-4.3932001e-2,0,1,0,32.41593)" gradientUnits="userSpaceOnUse" id="linearGradient3480" x1="749.55359" x2="724.55359" y1="299.09448" y2="299.80878">
<stop offset="0" stop-color="#cadaf3"/>
<stop offset="1" stop-color="#636b78"/>
</linearGradient>
<linearGradient gradientUnits="userSpaceOnUse" id="linearGradient3490" x1="685.71436" x2="693.92865" y1="261.22455" y2="292.01666">
<stop offset="0" stop-color="#f6ffff" stop-opacity=".65359"/>
<stop offset=".5" stop-color="#faffff" stop-opacity=".60544"/>
<stop offset="1" stop-color="#a1a1a1" stop-opacity=".6732"/>
</linearGradient>
<linearGradient gradientUnits="userSpaceOnUse" id="linearGradient3405" x1="593.03571" x2="587.67859" xlink:href="#linearGradient3399" y1="312.48734" y2="314.54092"/>
<linearGradient gradientUnits="userSpaceOnUse" id="linearGradient3413" x1="593.03577" x2="589.64288" xlink:href="#linearGradient3407" y1="311.86234" y2="313.91589"/>
<linearGradient gradientUnits="userSpaceOnUse" id="linearGradient3532" x1="565.17853" x2="564.33948" xlink:href="#linearGradient3260" y1="316.14804" y2="313.68472"/>
<linearGradient gradientTransform="matrix(.8736,0,0,.83816,49.32208,51.07184)" gradientUnits="userSpaceOnUse" id="linearGradient3536" x1="565.17853" x2="564.33948" xlink:href="#linearGradient3260" y1="316.14804" y2="313.68472"/>
<linearGradient gradientTransform="matrix(1.42132,.25418,0,1.13117,-188.57355,-184.10569)" gradientUnits="userSpaceOnUse" id="linearGradient3540" x1="565.2674" x2="564.33948" xlink:href="#linearGradient3260" y1="317.08884" y2="313.68472"/>
<linearGradient gradientUnits="userSpaceOnUse" id="linearGradient3360" x1="606.78601" x2="595.48492" xlink:href="#linearGradient3259" y1="279.48746" y2="281.57089"/>
<linearGradient gradientUnits="userSpaceOnUse" id="linearGradient3364" x1="603.69238" x2="607.73303" xlink:href="#linearGradient3259" y1="278.54044" y2="271.59561"/>
<linearGradient gradientUnits="userSpaceOnUse" id="linearGradient3472" x1="742.93464" x2="729.85615" xlink:href="#linearGradient3399" y1="299.56682" y2="311.5884"/>
<linearGradient gradientUnits="userSpaceOnUse" id="linearGradient3474" x1="731.35046" x2="737.91644" xlink:href="#linearGradient3407" y1="312.50681" y2="303.25778"/>
<linearGradient gradientUnits="userSpaceOnUse" id="linearGradient3476" x1="733.89602" x2="731.21744" xlink:href="#linearGradient3376" y1="314.23497" y2="308.16356"/>
<linearGradient gradientUnits="userSpaceOnUse" id="linearGradient3478" x1="722.85712" x2="708.03571" xlink:href="#linearGradient3399" y1="302.57397" y2="315.88019"/>
<linearGradient gradientTransform="matrix(1,0,0,-1,-5e-5,629.43684)" gradientUnits="userSpaceOnUse" id="linearGradient3482" x1="714.82141" x2="715.35712" xlink:href="#linearGradient3376" y1="309.45163" y2="319.09448"/>
<linearGradient gradientUnits="userSpaceOnUse" id="linearGradient3484" x1="714.70312" x2="712.02454" xlink:href="#linearGradient3376" y1="318.02304" y2="311.95163"/>
<linearGradient gradientUnits="userSpaceOnUse" id="linearGradient3492" x1="705.21277" x2="711.52618" xlink:href="#linearGradient3376" y1="268.18637" y2="257.76208"/>
<linearGradient gradientTransform="matrix(1.04854,0,0,1.0546,-30.40915,-17.23887)" gradientUnits="userSpaceOnUse" id="linearGradient3494" x1="654.64288" x2="656.07141" xlink:href="#linearGradient3276" y1="305.16592" y2="311.23737"/>
<linearGradient gradientUnits="userSpaceOnUse" id="linearGradient3496" x1="610.17859" x2="610.53571" xlink:href="#linearGradient3276" y1="322.66592" y2="310.25519"/>
<radialGradient cx="598.05035" cy="319.25253" gradientTransform="matrix(.88368,.18076,-.47543,1.80461,219.91899,-363.97195)" gradientUnits="userSpaceOnUse" id="radialGradient3461" r="6.02679" xlink:href="#linearGradient3421"/>
<radialGradient cx="585.38531" cy="325.13617" gradientTransform="matrix(1.29099,-5.2141703e-2,2.5658769e-2,.63527,-179.42484,146.461)" gradientUnits="userSpaceOnUse" id="radialGradient3473" r="10.44006" xlink:href="#linearGradient3407"/>
<radialGradient cx="598.05035" cy="319.25253" gradientTransform="matrix(-2.39197,.34807,-.2117,-1.12951,2094.7276,472.69156)" gradientUnits="userSpaceOnUse" id="radialGradient3479" r="6.02679" xlink:href="#linearGradient3421"/>
<radialGradient cx="595.84821" cy="320.25519" gradientTransform="matrix(-3.5002698e-2,-.97506,4.56552,-.15601,-845.4263,951.20522)" gradientUnits="userSpaceOnUse" id="radialGradient3485" r="6.02679" xlink:href="#linearGradient3399"/>
<radialGradient cx="534.46429" cy="312.98914" gradientTransform="matrix(-.69364,.11561,-.15014,-.90087,952.18509,533.19723)" gradientUnits="userSpaceOnUse" id="radialGradient3497" r="3.08928" xlink:href="#linearGradient3399"/>
<radialGradient cx="721.67847" cy="310.80997" gradientTransform="matrix(-2.58042,.38371,-.16034,-.82555,2637.3358,291.41006)" gradientUnits="userSpaceOnUse" id="radialGradient3486" r="7.41071" xlink:href="#linearGradient3259"/>
</defs>
<g transform="translate(-425.71429,-200.52306)">
<path d="m426.51904,200.52306h397.67622a.80475,.45664 0 0,1 .80475.45664v294.80102a.80475,.45664 0 0,1 -.80475.45664h-397.67622a.80475,.45664 0 0,1 -.80475-.45664v-294.80102a.80475,.45664 0 0,1 .80475-.45664" fill="url(#linearGradient3392)" opacity=".97636"/>
<g transform="translate(12.00004,54.39925)">
<path d="m728.75317,311.1044c.15757,3.54929 5.6726,5.00128 8.19377,5.16261s5.98775,0 7.72104-.484 5.19988-2.90396 4.88474-7.7439-4.72717-5.48527-6.77561-5.80793-5.35746.32266-8.19376,1.45198-5.04232,3.38795-5.51503,4.83994-.31515,2.74263-.31515,2.5813z" fill="url(#linearGradient3472)" fill-rule="evenodd"/>
<path d="m735.89613,300.38498 4.04061,2.27284c0,0-4.54569,1.01015-6.06092,3.03046s-11.11168-3.53554-11.11168-3.53554l5.30331-1.26269 7.82868-.50507z" fill="url(#linearGradient3474)" fill-rule="evenodd"/>
<path d="m736.52326,305.64943c-4.83,0-9.64286,2.37339-9.64286,5.28125s3.92,5.28125 8.75,5.28125c1.9901,0 3.81067-.4192 5.28125-1.09375-3.24384-1.33662-.29018-.80295-.29018-3.91071 0-.80836-5.02029-4.82192-4.74107-5.55804h.64286z" fill="url(#linearGradient3476)" opacity=".70303"/>
<path d="m706.78571,315.34448c.17857,3.92857 6.42857,5.53572 9.28572,5.71429s6.78572,0 8.75-.53572 5.89285-3.21428 5.53571-8.57142-5.35714-6.07143-7.67857-6.42857-6.07143.35714-9.28571,1.60714-5.71429,3.74999-6.25,5.35714-.35715,3.03571-.35715,2.85714z" fill="url(#linearGradient3478)" fill-rule="evenodd"/>
<path d="m721.60714,302.7552 32.05357-3.46175c0,0 .98214-.13244.08929-.71821s-5.44643-6.27859-5.44643-6.27859l.71429,5.95077-26.69643,1.3514-.71429,3.15638z" fill="url(#linearGradient3480)" fill-rule="evenodd"/>
<path d="m716.4375,319.99934c-4.83,0-8.75-2.37339-8.75-5.28125s3.92-5.28125 8.75-5.28125c1.9901,0 3.81067.4192 5.28125,1.09375-3.24384,1.33662-5.46875,4.01724-5.46875,7.125 0,.80836.15828,1.60763.4375,2.34375h-.25z" fill="url(#linearGradient3482)" opacity=".70303"/>
<path d="m717.33036,309.4375c-4.83,0-9.64286,2.37339-9.64286,5.28125s3.92,5.28125 8.75,5.28125c1.9901,0 3.81067-.4192 5.28125-1.09375-3.24384-1.33662-.29018-.80295-.29018-3.91071 0-.80836-5.02029-4.82192-4.74107-5.55804h.64286z" fill="url(#linearGradient3484)" opacity=".70303"/>
<path d="m732.6786,312.57663a7.41071,7.41071 0 1,1 -14.82143,0 7.41071,7.41071 0 1,1 14.82143,0z" fill="url(#radialGradient3486)" transform="matrix(.90215,0,0,.96653,69.70462,10.97212)"/>
<path d="m732.6786,312.57663a7.41071,7.41071 0 1,1 -14.82143,0 7.41071,7.41071 0 1,1 14.82143,0z" transform="matrix(.66265,0,0,.77108,244.49012,72.00012)"/>
<path d="m732.6786,312.57663a7.41071,7.41071 0 1,1 -14.82143,0 7.41071,7.41071 0 1,1 14.82143,0z" fill="url(#radialGradient3486)" transform="matrix(.834,0,0,.83022,138.83314,49.53875)"/>
<path d="m732.6786,312.57663a7.41071,7.41071 0 1,1 -14.82143,0 7.41071,7.41071 0 1,1 14.82143,0z" transform="matrix(.61259,0,0,.66234,300.41413,101.95995)"/>
<path d="m614.82143,292.48734-1.60714-1.07143c0,0-8.03572-18.75-9.82143-22.67857s-4.10714-8.21429-4.10714-8.21429l-4.10715,2.85715h.89286l5.53571,34.46428c0,0-1.60714.53572-2.32142,2.14286s-.35715,2.32143-.35715,2.32143l.89286,2.5c0,0 8.39286,9.82143 14.28571,12.5s13.57143,3.57143 16.78572,3.57143 60-5.71429 66.25-6.42858 14.10714-3.21428 21.60714-8.57142 13.57143-13.92858 14.64286-16.25 1.42857-8.03572-1.42857-11.25-15.71429-14.10715-15.71429-14.10715l-3.03571-2.85714c0,0-2.85715-3.39286-7.32143-3.92857s-17.32143,3.39286-35,10.53571-25.35714,15.17857-28.92857,16.42857-21.25,6.96429-23.21429,7.67858-4.10714.53571-3.92857.35714z" fill="#fff5ff" fill-opacity=".97386" fill-rule="evenodd"/>
<path d="m614.82143,292.48734-1.60714-1.07143c0,0-8.03572-18.75-9.82143-22.67857s-4.10714-8.21429-4.10714-8.21429l-4.10715,2.85715h.89286l5.53571,34.46428c0,0-1.60714.53572-2.32142,2.14286s-.35715,2.32143-.35715,2.32143l.89286,2.5c0,0 8.32988,9.71202 14.28571,12.24746 5.59696,2.38267 13.56394,3.56395 16.78572,3.57143 3.21427.00747 60-5.46175 66.25-6.17604s14.10714-3.21428 21.60714-8.57142 13.57143-13.92858 14.64286-16.25 1.42857-8.03572-1.42857-11.25-15.71429-14.10715-15.71429-14.10715l-3.03571-2.85714c0,0-2.85715-3.39286-7.32143-3.92857s-17.32143,3.39286-35,10.53571-25.35714,15.17857-28.92857,16.42857-21.25,6.96429-23.21429,7.67858-4.10714.53571-3.92857.35714z" fill="url(#linearGradient3490)" fill-rule="evenodd"/>
<path d="m602.5,306.05877 3.03571.35714c0,0 39.28572-10.17857 61.96429-15s45.89286-10 55.53571-10.71428 10.09378-.58802 10.09378-.58802c.57478.19159-2.87706-4.62546-4.73663-5.66198-1.4715-.82021-1.42858-.89286-1.42858-.89286s-19.10714,2.14286-39.46428,6.42857-78.39286,22.14286-81.07143,22.67857-6.42857.71429-6.42857.71429l-.89286.35714c0,0 .35715.89286 1.07143,1.25s2.32143,1.25 2.32143,1.07143z" fill="#1e426e" fill-rule="evenodd"/>
<path d="m726.93102,273.86847-10.85914-9.21764c0,0-5.80838-6.43972-9.72272-6.69226s-7.3236.39912-14.01586,2.9245-24.62247,8.43972-28.53681,10.83883-4.92449,3.40926-4.92449,3.40926 28.78934-10.48033 35.60787-11.23794 7.0688-1.59373 11.11168-.75762c6.31879,1.30679 14.53761,7.2061 19.69797,10.73288l1.6415-1e-005z" fill="url(#linearGradient3492)" fill-rule="evenodd"/>
<path d="m733.65622,288.60024c.43006,0 .8487-4.56889.61866-4.56889 0,0-17.84631.42028-47.13202,6.13456s-71.60715,15.35714-71.60715,15.35714l4.10715.17858 5.53571-.35715c0,0 46.25-8.39285 59.10714-10.71428s30-5.35715 38.03572-5.71429 11.69194-.49424 11.33479-.31567z" fill="#8a1511" fill-rule="evenodd"/>
<path d="m665,309.4868c0,0-1.68516-2.44819-5.99168-4.70806s-7.30235-3.3898-11.79611-2.63651-12.54508,3.01315-12.54508,3.01315l-8.23856,3.95477c0,0 17.03883,5.83799 21.5326,6.40295s8.98752-.18832 12.35783-1.31825 4.681-3.3898 4.681-3.3898v-1.31825z" fill="url(#linearGradient3494)" fill-rule="evenodd"/>
<path d="m648.75,305.70162-24.64286.35715c0,0-127.32142,6.07142-136.07142,6.60714-5.8175.35617-9.84407.0977-11.29113.24352-.72944.07351-4.1553-6.22567-4.1553-6.22567 .0232.04612 1.63078,5.01162 2.25674,6.10986 .41818.73369.8767,1.2329 1.31779,1.26864 .22234.01802 2.33432-.32492 2.58618-.32492l147.32143.35714c0,0 10.35714,1.07143 13.03571,1.07143s6.25-1.07143 7.32143-1.42857 4.82143-1.42857 5.71429-2.32143 1.96428-2.14286-.17857-3.75-3.03572-2.14286-3.21429-1.96429z" fill="url(#linearGradient3496)" fill-rule="evenodd"/>
<path d="m653.57143,309.80877-177.32143,3.39285 4.83289-.67231 57.28238-3.27274 84.49187-3.55495 26.25,1e-005 3.39286,1.78571 .71429,2.14286 .35714.17857z" fill="#e8ebeb" fill-rule="evenodd"/>
<path d="m716.16072,264.71948-13.39286.35714 .71428-3.48214c0,0 4.82143-.35714 6.51786-.35714h2.41072l3.75,3.48214z" fill="#28393f" fill-rule="evenodd"/>
<path d="m698.30357,266.32662 4.10715-1.07142 .625-3.48215-2.85715.44643-2.23214,3.03572 .35714,1.07142z" fill="#28393f" fill-rule="evenodd"/>
<path d="m722.20553,397.81461h.00886a.81845,.45664 0 0,1 .81845.45664v1.824a.81845,.45664 0 0,1 -.81845.45664h-.00886a.81845,.45664 0 0,1 -.81845-.45664v-1.824a.81845,.45664 0 0,1 .81845-.45664" fill="#10181a" opacity=".97636" transform="matrix(.98667,-.16275,0,1,0,0)"/>
<path d="m719.67776,397.81461h.00886a.81845,.45664 0 0,1 .81845.45664v1.824a.81845,.45664 0 0,1 -.81845.45664h-.00886a.81845,.45664 0 0,1 -.81845-.45664v-1.824a.81845,.45664 0 0,1 .81845-.45664" fill="#10181a" opacity=".97636" transform="matrix(.98667,-.16275,0,1,0,0)"/>
<path d="m717.14987,397.81461h.00886a.81845,.45664 0 0,1 .81845.45664v1.824a.81845,.45664 0 0,1 -.81845.45664h-.00886a.81845,.45664 0 0,1 -.81845-.45664v-1.824a.81845,.45664 0 0,1 .81845-.45664" fill="#10181a" opacity=".97636" transform="matrix(.98667,-.16275,0,1,0,0)"/>
<path d="m714.62204,397.81461h.00886a.81845,.45664 0 0,1 .81845.45664v1.824a.81845,.45664 0 0,1 -.81845.45664h-.00886a.81845,.45664 0 0,1 -.81845-.45664v-1.824a.81845,.45664 0 0,1 .81845-.45664" fill="#10181a" opacity=".97636" transform="matrix(.98667,-.16275,0,1,0,0)"/>
<path d="m712.09433,397.81461h.00886a.81845,.45664 0 0,1 .81845.45664v1.824a.81845,.45664 0 0,1 -.81845.45664h-.00886a.81845,.45664 0 0,1 -.81845-.45664v-1.824a.81845,.45664 0 0,1 .81845-.45664" fill="#10181a" opacity=".97636" transform="matrix(.98667,-.16275,0,1,0,0)"/>
<path d="m709.56637,397.81461h.00886a.81845,.45664 0 0,1 .81845.45664v1.824a.81845,.45664 0 0,1 -.81845.45664h-.00886a.81845,.45664 0 0,1 -.81845-.45664v-1.824a.81845,.45664 0 0,1 .81845-.45664" fill="#10181a" opacity=".97636" transform="matrix(.98667,-.16275,0,1,0,0)"/>
<path d="m707.03866,397.81461h.00886a.81845,.45664 0 0,1 .81845.45664v1.824a.81845,.45664 0 0,1 -.81845.45664h-.00886a.81845,.45664 0 0,1 -.81845-.45664v-1.824a.81845,.45664 0 0,1 .81845-.45664" fill="#10181a" opacity=".97636" transform="matrix(.98667,-.16275,0,1,0,0)"/>
<path d="m704.51083,397.81461h.00886a.81845,.45664 0 0,1 .81845.45664v1.824a.81845,.45664 0 0,1 -.81845.45664h-.00886a.81845,.45664 0 0,1 -.81845-.45664v-1.824a.81845,.45664 0 0,1 .81845-.45664" fill="#10181a" opacity=".97636" transform="matrix(.98667,-.16275,0,1,0,0)"/>
<path d="m701.98294,397.81461h.00886a.81845,.45664 0 0,1 .81845.45664v1.824a.81845,.45664 0 0,1 -.81845.45664h-.00886a.81845,.45664 0 0,1 -.81845-.45664v-1.824a.81845,.45664 0 0,1 .81845-.45664" fill="#10181a" opacity=".97636" transform="matrix(.98667,-.16275,0,1,0,0)"/>
<path d="m699.45517,397.81461h.00886a.81845,.45664 0 0,1 .81845.45664v1.824a.81845,.45664 0 0,1 -.81845.45664h-.00886a.81845,.45664 0 0,1 -.81845-.45664v-1.824a.81845,.45664 0 0,1 .81845-.45664" fill="#10181a" opacity=".97636" transform="matrix(.98667,-.16275,0,1,0,0)"/>
<path d="m696.92746,397.81461h.00886a.81845,.45664 0 0,1 .81845.45664v1.824a.81845,.45664 0 0,1 -.81845.45664h-.00886a.81845,.45664 0 0,1 -.81845-.45664v-1.824a.81845,.45664 0 0,1 .81845-.45664" fill="#10181a" opacity=".97636" transform="matrix(.98667,-.16275,0,1,0,0)"/>
<path d="m694.39957,397.81461h.00886a.81845,.45664 0 0,1 .81845.45664v1.824a.81845,.45664 0 0,1 -.81845.45664h-.00886a.81845,.45664 0 0,1 -.81845-.45664v-1.824a.81845,.45664 0 0,1 .81845-.45664" fill="#10181a" opacity=".97636" transform="matrix(.98667,-.16275,0,1,0,0)"/>
<path d="m691.87173,397.81461h.00886a.81845,.45664 0 0,1 .81845.45664v1.824a.81845,.45664 0 0,1 -.81845.45664h-.00886a.81845,.45664 0 0,1 -.81845-.45664v-1.824a.81845,.45664 0 0,1 .81845-.45664" fill="#10181a" opacity=".97636" transform="matrix(.98667,-.16275,0,1,0,0)"/>
<path d="m689.3439,397.81461h.00886a.81845,.45664 0 0,1 .81845.45664v1.824a.81845,.45664 0 0,1 -.81845.45664h-.00886a.81845,.45664 0 0,1 -.81845-.45664v-1.824a.81845,.45664 0 0,1 .81845-.45664" fill="#10181a" opacity=".97636" transform="matrix(.98667,-.16275,0,1,0,0)"/>
<path d="m686.81607,397.81461h.00886a.81845,.45664 0 0,1 .81845.45664v1.824a.81845,.45664 0 0,1 -.81845.45664h-.00886a.81845,.45664 0 0,1 -.81845-.45664v-1.824a.81845,.45664 0 0,1 .81845-.45664" fill="#10181a" opacity=".97636" transform="matrix(.98667,-.16275,0,1,0,0)"/>
<path d="m684.2883,397.81461h.00886a.81845,.45664 0 0,1 .81845.45664v1.824a.81845,.45664 0 0,1 -.81845.45664h-.00886a.81845,.45664 0 0,1 -.81845-.45664v-1.824a.81845,.45664 0 0,1 .81845-.45664" fill="#10181a" opacity=".97636" transform="matrix(.98667,-.16275,0,1,0,0)"/>
<path d="m681.76053,397.81461h.00886a.81845,.45664 0 0,1 .81845.45664v1.824a.81845,.45664 0 0,1 -.81845.45664h-.00886a.81845,.45664 0 0,1 -.81845-.45664v-1.824a.81845,.45664 0 0,1 .81845-.45664" fill="#10181a" opacity=".97636" transform="matrix(.98667,-.16275,0,1,0,0)"/>
<path d="m679.2327,397.81461h.00886a.81845,.45664 0 0,1 .81845.45664v1.824a.81845,.45664 0 0,1 -.81845.45664h-.00886a.81845,.45664 0 0,1 -.81845-.45664v-1.824a.81845,.45664 0 0,1 .81845-.45664" fill="#10181a" opacity=".97636" transform="matrix(.98667,-.16275,0,1,0,0)"/>
<path d="m676.70486,397.81461h.00886a.81845,.45664 0 0,1 .81845.45664v1.824a.81845,.45664 0 0,1 -.81845.45664h-.00886a.81845,.45664 0 0,1 -.81845-.45664v-1.824a.81845,.45664 0 0,1 .81845-.45664" fill="#10181a" opacity=".97636" transform="matrix(.98667,-.16275,0,1,0,0)"/>
<path d="m536.25,315.34448-2.67857-4.28571-2.5.17857 3.75,4.46428 1.42857-.35714z" fill="url(#radialGradient3497)" fill-rule="evenodd"/>
<path d="m597.41072,314.6302-7.5-5.53572c0,0-4.10715,1.42857-4.82144,2.14286s4.91072,3.92857 4.91072,3.92857l7.41072-.53571z" fill="url(#linearGradient3413)" fill-rule="evenodd"/>
<path d="m602.76786,322.21948c0,0 .31624,3.81103-4.375,6.69643-5.03081,3.09426-14.9478-1.16555-15.26785-5-.13725-1.64435-.3007-2.16647.71428-4.01786 .69209-1.26242 3.30647-3.62412 5.17857-4.55356 1.96428-.97521 5.44643-1.55361 7.85714-.98215 2.37131.56212 4.54483,2.24376 5.44643,4.28571 .79555,1.80177.58999,3.64145.44643,3.57143z" fill="url(#radialGradient3473)" fill-rule="evenodd"/>
<path d="m588.75,315.8802-2.14286,1.07142-5.71428-3.75 3.21428-1.07142 4.64286,3.75z" fill="url(#linearGradient3405)" fill-rule="evenodd"/>
<path d="m601.87499,320.25519a6.02679,5.80357 0 1,1 -12.05357,0 6.02679,5.80357 0 1,1 12.05357,0z" fill="url(#radialGradient3461)" transform="matrix(1.03704,0,0,1.17692,-21.84524,-55.18732)"/>
<path d="m601.87499,320.25519a6.02679,5.80357 0 1,1 -12.05357,0 6.02679,5.80357 0 1,1 12.05357,0z" transform="matrix(.8963,0,0,.93077,62.59524,23.73401)"/>
<path d="m530.17857,317.66591 3.03572-1.78571-1.42857-3.57143-2.32143,1.60714 .71428,3.75z" fill="#b0b3b3" fill-rule="evenodd"/>
<path d="m601.87499,320.25519a6.02679,5.80357 0 1,1 -12.05357,0 6.02679,5.80357 0 1,1 12.05357,0z" fill="url(#radialGradient3485)" transform="matrix(1.3434,0,0,1.37692,-266.0003,-118.43479)"/>
<path d="m601.87499,320.25519a6.02679,5.80357 0 1,1 -12.05357,0 6.02679,5.80357 0 1,1 12.05357,0z" fill="url(#radialGradient3479)" transform="matrix(1.03229,0,0,1.08462,-79.82173,-25.08959)"/>
<path d="m601.87499,320.25519a6.02679,5.80357 0 1,1 -12.05357,0 6.02679,5.80357 0 1,1 12.05357,0z" transform="matrix(.82222,0,0,.85385,45.34828,48.81545)"/>
<path d="m561.16072,314.27305c0,0 .17857,1.78571 1.78571,2.14286s2.23214.35714 3.30357-.17857 1.16072-2.67857 1.25-3.21429-.17857-1.875-.17857-1.875l-2.41072.08929-3.74999,3.03571z" fill="url(#linearGradient3532)" fill-rule="evenodd"/>
<path d="m539.55358,314.48158c0,0 .156,1.4967 1.56,1.79605s1.95001.29934 2.88601-.14967 1.01401-2.24506 1.092-2.69408-.156-1.57154-.156-1.57154l-2.10601.07484-3.276,2.5444z" fill="url(#linearGradient3536)" fill-rule="evenodd"/>
<path d="m609.01786,314.02499c0,0 .00127,3.07547 2.28554,3.88797s2.92005.21374 4.4429-.11989 2.15484-2.98742 2.28174-3.57072-.25382-2.16631-.25382-2.16631l-3.4264-.51177-5.32996,2.48072z" fill="url(#linearGradient3540)" fill-rule="evenodd"/>
<path d="m599.73214,285.88019 8.125-4.01785-2.14286-4.91072-6.69642,4.28572 .71428,4.64285z" fill="#214079" fill-rule="evenodd"/>
<path d="m599.86607,287.17484 8.34821-4.10715 .89286,1.875-8.83928,4.375-.40179-2.14285z" fill="#801d22" fill-rule="evenodd"/>
<path d="m600.44643,290.34448 9.39678-4.18781 1.00501,1.86638-9.94954,4.4604-.45225-2.13897z" fill="#801d22" fill-rule="evenodd"/>
<path d="m600.78823,305.43574-44.69925-3.03046c0,0-1.2627-.50507-.25254-.75761s47.7297.50507 47.7297.50507h4.29315l-7.07106,3.283z" fill="#bac3c4" fill-rule="evenodd"/>
<path d="m713.08864,471.96405a.66768,.45664 0 0,1 .66768.45664v1.18169a.66768,.45664 0 0,1 -.66768.45664 .66768,.45664 0 0,1 -.66768-.45664v-1.18169a.66768,.45664 0 0,1 .66768-.45664" fill="#10181a" opacity=".97636" transform="matrix(.95856,-.28488,0,1,0,0)"/>
<path d="m711.03768,471.96405a.66768,.45664 0 0,1 .66768.45664v1.18169a.66768,.45664 0 0,1 -.66768.45664 .66768,.45664 0 0,1 -.66768-.45664v-1.18169a.66768,.45664 0 0,1 .66768-.45664" fill="#10181a" opacity=".97636" transform="matrix(.95856,-.28488,0,1,0,0)"/>
<path d="m708.98665,471.96405a.66768,.45664 0 0,1 .66768.45664v1.18169a.66768,.45664 0 0,1 -.66768.45664 .66768,.45664 0 0,1 -.66768-.45664v-1.18169a.66768,.45664 0 0,1 .66768-.45664" fill="#10181a" opacity=".97636" transform="matrix(.95856,-.28488,0,1,0,0)"/>
<path d="m706.93544,471.96405a.66768,.45664 0 0,1 .66768.45664v1.18169a.66768,.45664 0 0,1 -.66768.45664 .66768,.45664 0 0,1 -.66768-.45664v-1.18169a.66768,.45664 0 0,1 .66768-.45664" fill="#10181a" opacity=".97636" transform="matrix(.95856,-.28488,0,1,0,0)"/>
<path d="m704.88448,471.96405a.66768,.45664 0 0,1 .66768.45664v1.18169a.66768,.45664 0 0,1 -.66768.45664 .66768,.45664 0 0,1 -.66768-.45664v-1.18169a.66768,.45664 0 0,1 .66768-.45664" fill="#10181a" opacity=".97636" transform="matrix(.95856,-.28488,0,1,0,0)"/>
<path d="m702.83357,471.96405a.66768,.45664 0 0,1 .66768.45664v1.18169a.66768,.45664 0 0,1 -.66768.45664 .66768,.45664 0 0,1 -.66768-.45664v-1.18169a.66768,.45664 0 0,1 .66768-.45664" fill="#10181a" opacity=".97636" transform="matrix(.95856,-.28488,0,1,0,0)"/>
<path d="m700.78243,471.96405a.66768,.45664 0 0,1 .66768.45664v1.18169a.66768,.45664 0 0,1 -.66768.45664 .66768,.45664 0 0,1 -.66768-.45664v-1.18169a.66768,.45664 0 0,1 .66768-.45664" fill="#10181a" opacity=".97636" transform="matrix(.95856,-.28488,0,1,0,0)"/>
<path d="m698.7314,471.96405a.66768,.45664 0 0,1 .66768.45664v1.18169a.66768,.45664 0 0,1 -.66768.45664 .66768,.45664 0 0,1 -.66768-.45664v-1.18169a.66768,.45664 0 0,1 .66768-.45664" fill="#10181a" opacity=".97636" transform="matrix(.95856,-.28488,0,1,0,0)"/>
<path d="m710.47476,524.69464a.66958,.45664 0 0,1 .66958.45664v1.16275a.66958,.45664 0 0,1 -.66958.45664 .66958,.45664 0 0,1 -.66958-.45664v-1.16275a.66958,.45664 0 0,1 .66958-.45664" fill="#10181a" opacity=".97636" transform="matrix(.93605,-.35187,0,1,0,0)"/>
<path d="m708.41793,524.69464a.66958,.45664 0 0,1 .66958.45664v1.16275a.66958,.45664 0 0,1 -.66958.45664 .66958,.45664 0 0,1 -.66958-.45664v-1.16275a.66958,.45664 0 0,1 .66958-.45664" fill="#10181a" opacity=".97636" transform="matrix(.93605,-.35187,0,1,0,0)"/>
<path d="m706.36111,524.69464a.66958,.45664 0 0,1 .66958.45664v1.16275a.66958,.45664 0 0,1 -.66958.45664 .66958,.45664 0 0,1 -.66958-.45664v-1.16275a.66958,.45664 0 0,1 .66958-.45664" fill="#10181a" opacity=".97636" transform="matrix(.93605,-.35187,0,1,0,0)"/>
<path d="m704.30422,524.69464a.66958,.45664 0 0,1 .66958.45664v1.16275a.66958,.45664 0 0,1 -.66958.45664 .66958,.45664 0 0,1 -.66958-.45664v-1.16275a.66958,.45664 0 0,1 .66958-.45664" fill="#10181a" opacity=".97636" transform="matrix(.93605,-.35187,0,1,0,0)"/>
<path d="m702.2474,524.69464a.66958,.45664 0 0,1 .66958.45664v1.16275a.66958,.45664 0 0,1 -.66958.45664 .66958,.45664 0 0,1 -.66958-.45664v-1.16275a.66958,.45664 0 0,1 .66958-.45664" fill="#10181a" opacity=".97636" transform="matrix(.93605,-.35187,0,1,0,0)"/>
<path d="m612.72065,292.49316c0-.50508-7.07107-15.65736-7.07107-15.65736l-6.62912-15.08916-2.46225,2.39911 5.1139,31.18846 11.04854-2.84105z" fill="url(#linearGradient3360)" fill-rule="evenodd"/>
<path d="m612.72065,292.49316c0-.50508-7.07107-15.65736-7.07107-15.65736l-6.56599-15.46797-2.96732,1.89404 5.55584,32.07234 11.04854-2.84105z" fill="url(#linearGradient3364)" fill-rule="evenodd"/>
</g>
<path d="m435.55358,258.35714c-1.16601.01361-2.28017.28879-4.125.75-1.28079.3202-3.12087.80591-5,1.4375v99.5625c1.02805.02618 2.32405.0148 4.28125.40625 2.60861.52172 7.30471,2.78515 10,1.4375 2.86462-1.4323 3.5476-3.23811 7.875-2.15625 3.54387.88596 16.92294,3.07706 20,0 1.15666-1.15667 5.05446-12.84375 5.6875-12.84375 .55464,0 17.59758,2.04698 18.59375.71875 3.07525-4.10033 2.82727-1.62088 7.84375-2.875 3.70148-.92537 6.54256-2.26133 9.28125-5 1.28582-1.28583 2.54975-5.42613 5-6.40625 10.77322-4.30928 7.55762-2.38664 9.28125-9.28125 1.94861-7.79444 15.3915-4.3125 22.875-4.3125 3.33487,0 20.57922,2.62714 17.125-4.28125-3.49365-6.9873-8.72693-.16444-13.5625-5-5.93594-5.93595 16.21589-2.84376 20.71875-2.84375 10.0319,0 21.38351,1.79261 29.28125-2.15625 4.60825-2.30412 12.21195-2.76765 19.28125-2.125 6.25712.56883 9.10621,1.54999 14.28125,2.84375 2.99145.74786 19.9552,1.80808 24.3125.71875 3.08216-.77054 14.70241-1.7038 10.6875-5.71875-2.24619-2.24619-8.51079.95674-9.28125-2.125-.72409-2.89637-10.89404-3.60409-11.40625-7.15625-.71863-4.98346-16.25933-2.03238-2.875-8.5625 .42797-.2088-3.44701-.97552-3.5625-1.4375-1.62611-6.50444-22.7263-1.43751-30.71875-1.4375h-6.4375c-10.75663,0-25.84131,4.43811-37.84375,1.4375-4.1258-1.03145-5.50799-3.56249-9.28125-3.5625-4.5967,0-6.33113,4.28124-9.28125,4.28125-3.90049,0-29.0514,2.35701-30-1.4375-.44395-1.77581-2.45922-7.84374-5-7.84375-6.54999,0-10.21269,1.22481-14.3125-2.875-1.10676-1.10676-5.29845-6.17539-7.125-5.71875-3.97171.99293-12.46174,3.65519-15.71875-.6875-3.28572-4.38095-20.30976,3.87225-16.4375,0-4.02619-.80524-6.97151-4.3125-10-4.3125-3.75556,0-7.10192.03702-10-.6875-2.06257-.51564-3.27149-.76361-4.4375-.75z" fill="#f5fffa" fill-rule="evenodd"/>
<path d="m807.00225,389.08929c-1.25096-.02279-2.4117.03225-3.3918.28125-4.16671,1.05856-5.14088,2.3933-11.4352,1.59375-5.15466-.65478-24.64533-2.27411-29.121,0-1.55907.7922-8.06951,4.42309-8.33412,5.09375-.84712-.55506-6.36511-2.78397-20.10851-3.25-7.32864-.2485-10.97065,1.19814-18.26725,2.125-5.38393.68389-9.53524,1.66348-13.51873,3.6875-1.87021.9503-3.70417,3.99439-7.26814,4.71875-15.66994,3.18478-10.9632,1.77952-13.47028,6.875-2.83433,5.76049-18.28452-1.53125-29.16945-1.53125-4.85068-1e-005-14.812-1.94941-9.78775,3.15625 1.58801,1.61374 1.93035,2.24278 1.88971,2.4375 .43218.15418 1.17487.46825 2.71344,1.25 8.63399,4.38698-23.589,2.12501-30.13854,2.125-14.5917,0-14.62933-.60591-26.11683,2.3125-6.70277,1.70288-17.77251,2.03745-28.05501,1.5625-9.10113-.4204-17.32977,3.54991-24.85702,2.59375-4.3511-.55271-29.03376-1.33632-35.37159-.53125-4.48308.56946-21.39361,1.28274-15.55381,4.25 3.26708,1.66006 12.39806-.71507 13.51873,1.5625 1.05318,2.14057 15.82633,2.65602 16.57135,5.28125 1.04529,3.68304 23.63497,1.51765 4.16706,6.34375-.62243.15432 5.01662.72108 5.18461,1.0625 2.36528,4.80714 33.04957,1.06251 44.6748,1.0625h9.40012c12.58248-1e-005 13.38018,1.12973 22.2405,2.71875-3.34303.82522-6.55801,1.60308-9.59394,1.125-3.50985-.55272-23.37868-1.33632-28.49109-.53125-3.61625.56948-17.26033,1.25149-12.54965,4.21875 2.6354,1.66005 9.99823-.71507 10.9022,1.5625 .84957,2.14057 12.7724,2.68727 13.37337,5.3125 .84317,3.68303 19.04716,1.4864 3.34335,6.3125-.50216.15431 4.08001.72108 4.21552,1.0625 1.90791,4.80713 26.62398,1.06251 36.00149,1.0625h7.55887c12.62077-1e-005 10.38696,1.7199 24.46939,3.9375 4.8408.7623 13.11328-3.09376 17.54043-3.09375 5.39326-1e-005 11.85017,2.56251 15.31154,2.5625 4.57639,0 20.78833,6.13316 21.90132,8.9375 .52085,1.31242 10.683-3.50001 13.66409-3.5 7.68506,0 11.95488-.90498 16.76517,2.125 1.29855.81794 6.23949,4.55623 8.38258,4.21875 4.65996-.73383 15.70561-6.99073 19.52706-3.78125 3.85516,3.23776 23.82809-2.8618 19.28478,0 4.7239.59512 8.17261,3.1875 11.72593,3.1875 4.40641,1e-005 8.32562-.03546 11.72593.5 2.41998.38108 3.86498.57256 5.23305.5625s2.68089-.22164 4.84543-.5625c1.50278-.23665 3.65818-.59572 5.86296-1.0625v-22.84375-43.59375-22.84375c-1.49537-.01935-3.4038-.0232-6.2506-.3125s-7.3916-1.27538-11.14447-1.34375zm-161.98252,25.1875c-.92609-.3304-.06095.29208 0,0zm109.7004-18.1875c.1319.0895.21349.11789.0969.09375-.05346-.01107-.10486-.05323-.0969-.09375z" fill="#f5fffa" fill-rule="evenodd"/>
<path d="m817.48711,270.13271c.88233-.08892 1.72542-.36764 3.12141-.83327 .96918-.32327 2.36157-.80668 3.78352-1.40055v-66.43904c-.77793.05018-1.75862.14624-3.23964-.01069-1.97395-.20916-5.52751-1.56434-7.56705-.38608-2.16767,1.25229-2.68448,2.63307-5.95904,2.12619-2.68166-.4151-12.80567-1.12958-15.13409,1.35264-.87525.93307-4.74883,5.45377-4.30376,5.59115 .42382.13082-2.09921-2.65325-10.49854-2.45002-3.81267.09226-5.71084,1.70833-9.50683,2.97446-2.80093.93424-4.95079,2.11373-7.02317,4.32297-.97298,1.03726-1.9294,4.18265-3.78352,5.07272-8.15214,3.91339-5.71888,2.27499-7.02316,7.48704-1.47452,5.89229-9.50396-.6777-15.16675-.17157-2.52352.22554-7.71525-1.25203-5.10143,3.62001 2.64366,4.9277-1.25343.23356 2.40567,3.48025 4.49175,3.98553-12.27064,3.1984-15.67797,3.50293-7.59119.67848-7.60957.06958-13.58583,3.52213-3.48708,2.01453-9.24083,2.87135-14.5902,2.87451-4.73479.00279-9.03357,4.37617-12.94955,3.77-2.26364-.35039-15.10019.01334-18.39738,1.1131-2.33228.77793-11.12537,2.25355-8.08727,4.94928 1.6997,1.50813 6.44015-1.28268 7.02316.94278 .54792,2.0916 8.24357,1.92683 8.63116,4.51741 .54379,3.63444 12.30351.4024 2.17552,6.1337-.32384.18326 2.60837.48784 2.69576.82145 1.23049,4.69715 17.1971-.47463 23.24502-1.01518l4.87128-.43538c8.13959-.72749 6.6971,1.12144 15.7794,2.5273 3.12201.48326 8.45363-3.83698 11.30887-4.09216 3.47834-.31089 7.64793,1.86668 9.8803,1.66715 2.95152-.2638 13.4119,4.91647 14.12971,7.65666 .33594,1.28238 6.8609-4.102 8.78352-4.27382 4.9564-.44299 7.72799-1.59591 10.83033,1.15679 .83749.7431 4.00936,4.20559 5.39152,3.74458 3.00541-1.00245 10.14414-7.89374 12.60874-4.90454 2.48632,3.01553 15.36848-4.23539 12.43833-1.1117 3.04663.32281 5.27537,2.71566 7.56704,2.51084 2.84185-.25399 5.37406-.50767 7.56705-.16822 1.56075.2416 2.47555.3431 3.35787.25418z" fill="#f5fffa" fill-rule="evenodd"/>
</g>
</svg>
